#N canvas 328 153 885 696 10;
#X obj 242 477 line~;
#X msg 242 452 \$1 5;
#X obj 209 512 *~;
#X obj 215 576 throw~ outL;
#X obj 283 511 *~;
#X obj 356 575 throw~ outR;
#X obj 86 178 noise~;
#X msg 153 199 \$1 5;
#X obj 153 227 sig~;
#X obj 153 177 * 18000;
#X obj 203 177 loadbang;
#X obj 203 200 del;
#X obj 203 224 \$2;
#X obj 157 279 vcf~ 60 \$2;
#X text 123 37 Argumenst: 1st: address for receiving 2nd : filter resonance
;
#X obj 501 473 r \$1-dsp;
#X obj 501 531 switch~;
#X text 499 438 turn on / off dsp;
#X obj 558 473 loadbang;
#X msg 513 506 1;
#X obj 363 143 s \$0-depth;
#X obj 326 512 r \$0-depth;
#X obj 215 554 ../../chains/depth/depth;
#X obj 150 91 r \$1-shift;
#X obj 269 83 r \$1-vol;
#X obj 315 310 r \$1-pan;
#X obj 397 82 r \$1-depth;
#X obj 202 383 ../../chains/pan/pan;
#X obj 316 334 unpack f f f;
#X connect 0 0 2 1;
#X connect 0 0 4 1;
#X connect 1 0 0 0;
#X connect 2 0 22 0;
#X connect 4 0 22 1;
#X connect 6 0 13 0;
#X connect 7 0 8 0;
#X connect 8 0 13 1;
#X connect 9 0 7 0;
#X connect 10 0 11 0;
#X connect 11 0 12 0;
#X connect 12 0 13 2;
#X connect 13 0 27 0;
#X connect 13 0 27 1;
#X connect 15 0 16 0;
#X connect 18 0 19 0;
#X connect 19 0 16 0;
#X connect 21 0 22 2;
#X connect 22 0 3 0;
#X connect 22 1 5 0;
#X connect 23 0 9 0;
#X connect 24 0 1 0;
#X connect 25 0 28 0;
#X connect 26 0 20 0;
#X connect 27 0 2 0;
#X connect 27 1 4 0;
#X connect 28 0 27 2;
#X connect 28 1 27 3;
#X connect 28 2 27 4;
