#N canvas 422 234 1 1 12;
#X obj 116 116 * -1;
#X msg 190 115 0;
#X obj 58 159 phasor~;
#X obj 159 157 phasor~;
#X text 296 53 phase synchronization;
#X obj 85 46 inlet;
#X obj 105 333 outlet~;
#X text 76 12 square;
#X msg 232 116 0.5;
#X obj 222 85 bng 15 250 50 0 empty empty empty 17 7 0 10 -262144 -1
-1;
#X obj 109 211 +~;
#X obj 109 240 -~ 1;
#X obj 220 54 loadbang;
#X connect 0 0 3 0;
#X connect 1 0 2 1;
#X connect 2 0 10 0;
#X connect 3 0 10 1;
#X connect 5 0 0 0;
#X connect 5 0 2 0;
#X connect 8 0 3 1;
#X connect 9 0 8 0;
#X connect 9 0 1 0;
#X connect 10 0 11 0;
#X connect 11 0 6 0;
#X connect 12 0 9 0;
