#N canvas 343 329 681 618 12;
#X obj 116 116 * -1;
#X msg 190 115 0;
#X obj 58 159 phasor~;
#X obj 159 157 phasor~;
#X obj 59 199 *~ 2;
#X obj 58 226 -~ 1;
#X obj 57 254 clip~ 0 1;
#X obj 159 202 *~ 2;
#X obj 158 229 -~ 1;
#X obj 157 257 clip~ 0 1;
#X obj 105 308 +~;
#X text 76 12 triangle;
#X text 235 113 phase synchronization;
#X obj 85 46 inlet;
#X obj 105 333 outlet~;
#X connect 0 0 3 0;
#X connect 1 0 3 1;
#X connect 1 0 2 1;
#X connect 2 0 4 0;
#X connect 3 0 7 0;
#X connect 4 0 5 0;
#X connect 5 0 6 0;
#X connect 6 0 10 0;
#X connect 7 0 8 0;
#X connect 8 0 9 0;
#X connect 9 0 10 1;
#X connect 10 0 14 0;
#X connect 13 0 0 0;
#X connect 13 0 2 0;
